<svg xmlns="http://www.w3.org/2000/svg" viewBox="0 0 146 153.036">
    <defs>
        <style>
            .cls-1{stroke:#707070}.cls-1,.cls-3{fill:url(#linear-gradient)}.cls-2{clip-path:url(#clip-path)}
        </style>
        <linearGradient id="linear-gradient" x1=".5" x2=".5" y2="1" gradientUnits="objectBoundingBox">
            <stop offset="0" stop-color="#0d469d"/>
            <stop offset="1" stop-color="#1554b7"/>
        </linearGradient>
        <clipPath id="clip-path">
            <path id="Rectangle_159" d="M0 0h146v153.036H0z" class="cls-1" data-name="Rectangle 159" transform="translate(427 1349)"/>
        </clipPath>
    </defs>
    <g id="Mask_Group_1" class="cls-2" data-name="Mask Group 1" transform="translate(-427 -1349)">
        <g id="administrator" transform="translate(428.27 1349)">
            <path id="Path_4432" d="M144.332 137.515a23.232 23.232 0 0 0-13-9.479 2.097 2.097 0 0 0-.156-.038l-19.074-3.99-5.134-7.785q-.04-.061-.083-.118a4.782 4.782 0 0 0-6.854-.832l-.046.038-22.811 19.636-22.811-19.636-.046-.038a4.782 4.782 0 0 0-6.854.832q-.043.058-.083.118l-5.134 7.785L23.172 128c-.052.011-.1.024-.156.038a23.233 23.233 0 0 0-13 9.479 26.306 26.306 0 0 0-4.572 14.677v5.93c0 4.782 4.29 8.672 9.564 8.672H139.34c5.274 0 9.564-3.89 9.564-8.672v-5.93a26.3 26.3 0 0 0-4.572-14.679zm-41.276-18.538l4.684 7.1-16.508 22.7-5.194-5.193-5.35-5.35zm-28.273 35.862h4.782c.144 0 .286-.006.428-.014l1.438 7.187h-8.514l1.438-7.187c.145.008.284.014.428.014zm7.173-7.173a2.394 2.394 0 0 1-2.391 2.391h-4.782a2.394 2.394 0 0 1-2.391-2.391v-1.4l4.782-4.782 4.782 4.782v1.4zm-30.664-28.689l22.37 19.256-5.35 5.35-5.194 5.193-16.508-22.7zm-41.067 39.145v-5.93c0-7.735 4.811-16.912 14.007-19.531l18.443-3.861 18.219 25.051a2.391 2.391 0 0 0 1.747.977q.094.007.187.007a2.391 2.391 0 0 0 1.69-.7l3.665-3.665a7.2 7.2 0 0 0 1.684 2.408l-1.826 9.13H15.007c-2.637.004-4.782-1.741-4.782-3.886zm133.9 0c0 2.145-2.145 3.89-4.782 3.89H86.307l-1.826-9.13a7.2 7.2 0 0 0 1.684-2.408l3.665 3.665a2.391 2.391 0 0 0 1.69.7q.093 0 .187-.007a2.391 2.391 0 0 0 1.747-.977l18.218-25.055 18.444 3.858c9.2 2.618 14.007 11.8 14.007 19.531z" class="cls-3" data-name="Path 4432" transform="translate(-5.443 -13.758)"/>
            <path id="Path_4433" d="M40.129 76.117v29.1a2.391 2.391 0 0 0 4.782 0V76.529H47.1a47.167 47.167 0 0 0 8.16 15.332c6.954 8.612 16.025 13.355 25.541 13.355 7.37 0 14.522-2.867 20.685-8.291.03-.026.056-.054.083-.081.383.025.766.042 1.151.042a19.22 19.22 0 0 0 8.4-2c9.026-4.369 15.09-14.628 15.09-25.53V55.009a7.181 7.181 0 0 0-7.173-7.173h-.978c5.3-20.2 2.9-36.792.776-41.616 0-.008-.008-.016-.012-.024-.021-.047-.045-.091-.068-.136-.014-.026-.027-.053-.042-.079a3.47 3.47 0 0 0-.131-.203c-.02-.029-.044-.057-.067-.085s-.054-.068-.083-.1-.038-.039-.057-.059c-.035-.037-.07-.074-.108-.108l-.051-.044a1.273 1.273 0 0 0-.125-.1l-.058-.04c-.043-.03-.085-.061-.13-.088-.024-.015-.05-.028-.075-.042-.041-.023-.081-.047-.123-.068s-.064-.029-.1-.043-.074-.033-.112-.048-.074-.025-.111-.037-.071-.024-.108-.034-.074-.017-.111-.026-.077-.018-.117-.025-.067-.009-.1-.013-.09-.012-.135-.015h-.315c-.055 0-.11.008-.165.015h-.025c-6 .857-13.255-.6-20.94-2.144C82.477.084 69.161-2.583 58.75 4.842a2.4 2.4 0 0 0-.485-.049c-10.678 0-18.136 8.849-18.136 21.519 0 5.867 1.479 14.775 2.79 21.525h-.4a7.181 7.181 0 0 0-7.173 7.173v14.345a7.184 7.184 0 0 0 4.783 6.762zm68.9 14.464a13.4 13.4 0 0 1-14.6-1.417 7.173 7.173 0 1 0-3.389 3.4 2.368 2.368 0 0 0 .207.186 19.8 19.8 0 0 0 4.443 2.668 25.573 25.573 0 0 1-14.89 5.015c-8.043 0-15.792-4.112-21.82-11.577A43.274 43.274 0 0 1 49.618 62.1v-2.722c0-8.517 4.83-20.018 6.472-23.682a107.621 107.621 0 0 1 37.888 2 70.195 70.195 0 0 1 13.622 4.697l4.312 10.26v9.468a43.69 43.69 0 0 1-6.476 22.714 2.391 2.391 0 1 0 4.065 2.519 47.942 47.942 0 0 0 4.941-10.824h4.588a7.163 7.163 0 0 0 1.351-.129c-1.841 6.215-6.002 11.594-11.348 14.181zm-18.688-4.488A2.391 2.391 0 1 1 87.95 83.7a2.394 2.394 0 0 1 2.391 2.393zm31.083-31.083v14.346a2.394 2.394 0 0 1-2.391 2.391h-3.34a47.442 47.442 0 0 0 1.007-9.627v-9.5h2.335a2.394 2.394 0 0 1 2.389 2.389zM58.265 9.574a2.378 2.378 0 0 0 .664-.1 2.385 2.385 0 0 0 2.106-.392c8.78-6.663 21.289-4.151 33.387-1.722 6.347 1.275 12.417 2.493 18.023 2.493q1.3 0 2.557-.095c1.471 5.306 2.865 18.686-1.144 35.171l-2.185-5.2a2.391 2.391 0 0 0-1.048-1.166c-.882-.487-22-11.884-56.455-7.452h-.017c-.046.006-.091.016-.136.025s-.068.012-.1.02-.059.017-.088.025a2.373 2.373 0 0 0-.747.356l-.055.044a2.376 2.376 0 0 0-.426.419l-.014.017c-.025.032-.047.067-.07.1s-.045.063-.066.1l-.042.075c-.026.045-.052.09-.075.137l-.007.013a99.552 99.552 0 0 0-5 12.94c-1.191-6.318-2.414-14.034-2.414-19.073-.002-11.56 6.705-16.735 13.352-16.735zM40.129 55.009a2.394 2.394 0 0 1 2.391-2.391h1.37c.451 2.135.8 3.69.946 4.31V62.1a47.23 47.23 0 0 0 1.011 9.645H42.52a2.394 2.394 0 0 1-2.391-2.391z" class="cls-3" data-name="Path 4433" transform="translate(-9.046)"/>
        </g>
    </g>
</svg>
